<svg width="324" height="41" viewBox="0 0 324 41" fill="none" xmlns="http://www.w3.org/2000/svg">
<path d="M238.179 25.381H276.75V33.1905H238.179V25.381Z" fill="url(#paint0_linear_6_607)"/>
<path d="M248.786 33.1905L256.5 0H241.071L241.554 2.0744L234.321 33.1905H248.786Z" fill="url(#paint1_linear_6_607)"/>
<path d="M271.929 41L275.786 0H260.839L261.201 1.28125L257.464 41H271.929Z" fill="url(#paint2_linear_6_607)"/>
<path d="M280.607 33.1905H311.464V41H280.607V33.1905Z" fill="url(#paint3_linear_6_607)"/>
<path d="M290.25 0H321.107V7.80952H290.25V0Z" fill="url(#paint4_linear_6_607)"/>
<path d="M293.143 41L297.964 0H288.321L286.393 0.97619L285.429 1.95238L284.464 3.90476L283.5 6.83333L282.536 10.7381L281.571 20.5L279.643 41H293.143Z" fill="url(#paint5_linear_6_607)"/>
<path d="M310.5 0L305.679 41H315.321L317.25 40.0238L318.214 39.0476L319.179 37.0952L320.143 34.1667L320.625 32.2143L321.107 29.2857L322.071 20.5L324 0H310.5Z" fill="url(#paint6_linear_6_607)"/>
<path d="M14.4643 41L49.1786 0H32.7857L33.6295 1.28125L0 41H14.4643Z" fill="url(#paint7_linear_6_607)"/>
<path d="M45.3214 41H30.8571L6.44866 2.5625L3.85714 0H19.2857L45.3214 41Z" fill="url(#paint8_linear_6_607)"/>
<path d="M214.071 41L233.357 0H218.893L197.679 41H214.071Z" fill="url(#paint9_linear_6_607)"/>
<path d="M210.214 41H195.75L184.902 2.5625L183.214 0H200.571L210.214 41Z" fill="url(#paint10_linear_6_607)"/>
<path d="M63.6429 41L78.1071 0H61.7143L62.7388 2.5625L49.1786 41H63.6429Z" fill="url(#paint11_linear_6_607)"/>
<path d="M82.9286 41L78.1071 0H92.5714L97.3929 41H82.9286Z" fill="url(#paint12_linear_6_607)"/>
<path d="M64.6071 23.4286H83.8929V31.2381H64.6071V23.4286Z" fill="url(#paint13_linear_6_607)"/>
<path d="M64.6071 0H83.8929V7.80952H64.6071V0Z" fill="url(#paint14_linear_6_607)"/>
<path d="M113.786 41L116.679 0H101.25L102.033 1.95238V2.5625L99.3214 41H113.786Z" fill="url(#paint15_linear_6_607)"/>
<path d="M144.643 13.6667L145.607 0H131.143L130.179 13.6667H144.643Z" fill="url(#paint16_linear_6_607)"/>
<path d="M142.714 41L144.229 19.5238H126.321L128.25 22.4524V41H142.714Z" fill="url(#paint17_linear_6_607)"/>
<path d="M112.821 0H132.107V7.80952H112.821V0Z" fill="url(#paint18_linear_6_607)"/>
<path d="M112.821 33.1905H132.107V41H112.821V33.1905Z" fill="url(#paint19_linear_6_607)"/>
<defs>
<linearGradient id="paint0_linear_6_607" x1="-94.5" y1="20" x2="377.5" y2="20" gradientUnits="userSpaceOnUse">
<stop stop-color="#1A1A1A"/>
<stop offset="0.393876" stop-color="white"/>
</linearGradient>
<linearGradient id="paint1_linear_6_607" x1="-94.5" y1="20" x2="377.5" y2="20" gradientUnits="userSpaceOnUse">
<stop stop-color="#1A1A1A"/>
<stop offset="0.393876" stop-color="white"/>
</linearGradient>
<linearGradient id="paint2_linear_6_607" x1="-94.5" y1="20" x2="377.5" y2="20" gradientUnits="userSpaceOnUse">
<stop stop-color="#1A1A1A"/>
<stop offset="0.393876" stop-color="white"/>
</linearGradient>
<linearGradient id="paint3_linear_6_607" x1="-94.5" y1="20" x2="377.5" y2="20" gradientUnits="userSpaceOnUse">
<stop stop-color="#1A1A1A"/>
<stop offset="0.393876" stop-color="white"/>
</linearGradient>
<linearGradient id="paint4_linear_6_607" x1="-94.5" y1="20" x2="377.5" y2="20" gradientUnits="userSpaceOnUse">
<stop stop-color="#1A1A1A"/>
<stop offset="0.393876" stop-color="white"/>
</linearGradient>
<linearGradient id="paint5_linear_6_607" x1="-94.5" y1="20" x2="377.5" y2="20" gradientUnits="userSpaceOnUse">
<stop stop-color="#1A1A1A"/>
<stop offset="0.393876" stop-color="white"/>
</linearGradient>
<linearGradient id="paint6_linear_6_607" x1="-94.5" y1="20" x2="377.5" y2="20" gradientUnits="userSpaceOnUse">
<stop stop-color="#1A1A1A"/>
<stop offset="0.393876" stop-color="white"/>
</linearGradient>
<linearGradient id="paint7_linear_6_607" x1="-94.5" y1="20" x2="377.5" y2="20" gradientUnits="userSpaceOnUse">
<stop stop-color="#1A1A1A"/>
<stop offset="0.393876" stop-color="white"/>
</linearGradient>
<linearGradient id="paint8_linear_6_607" x1="-94.5" y1="20" x2="377.5" y2="20" gradientUnits="userSpaceOnUse">
<stop stop-color="#1A1A1A"/>
<stop offset="0.393876" stop-color="white"/>
</linearGradient>
<linearGradient id="paint9_linear_6_607" x1="-94.5" y1="20" x2="377.5" y2="20" gradientUnits="userSpaceOnUse">
<stop stop-color="#1A1A1A"/>
<stop offset="0.393876" stop-color="white"/>
</linearGradient>
<linearGradient id="paint10_linear_6_607" x1="-94.5" y1="20" x2="377.5" y2="20" gradientUnits="userSpaceOnUse">
<stop stop-color="#1A1A1A"/>
<stop offset="0.393876" stop-color="white"/>
</linearGradient>
<linearGradient id="paint11_linear_6_607" x1="-94.5" y1="20" x2="377.5" y2="20" gradientUnits="userSpaceOnUse">
<stop stop-color="#1A1A1A"/>
<stop offset="0.393876" stop-color="white"/>
</linearGradient>
<linearGradient id="paint12_linear_6_607" x1="-94.5" y1="20" x2="377.5" y2="20" gradientUnits="userSpaceOnUse">
<stop stop-color="#1A1A1A"/>
<stop offset="0.393876" stop-color="white"/>
</linearGradient>
<linearGradient id="paint13_linear_6_607" x1="-94.5" y1="20" x2="377.5" y2="20" gradientUnits="userSpaceOnUse">
<stop stop-color="#1A1A1A"/>
<stop offset="0.393876" stop-color="white"/>
</linearGradient>
<linearGradient id="paint14_linear_6_607" x1="-94.5" y1="20" x2="377.5" y2="20" gradientUnits="userSpaceOnUse">
<stop stop-color="#1A1A1A"/>
<stop offset="0.393876" stop-color="white"/>
</linearGradient>
<linearGradient id="paint15_linear_6_607" x1="-94.5" y1="20" x2="377.5" y2="20" gradientUnits="userSpaceOnUse">
<stop stop-color="#1A1A1A"/>
<stop offset="0.393876" stop-color="white"/>
</linearGradient>
<linearGradient id="paint16_linear_6_607" x1="-94.5" y1="20" x2="377.5" y2="20" gradientUnits="userSpaceOnUse">
<stop stop-color="#1A1A1A"/>
<stop offset="0.393876" stop-color="white"/>
</linearGradient>
<linearGradient id="paint17_linear_6_607" x1="-94.5" y1="20" x2="377.5" y2="20" gradientUnits="userSpaceOnUse">
<stop stop-color="#1A1A1A"/>
<stop offset="0.393876" stop-color="white"/>
</linearGradient>
<linearGradient id="paint18_linear_6_607" x1="-94.5" y1="20" x2="377.5" y2="20" gradientUnits="userSpaceOnUse">
<stop stop-color="#1A1A1A"/>
<stop offset="0.393876" stop-color="white"/>
</linearGradient>
<linearGradient id="paint19_linear_6_607" x1="-94.5" y1="20" x2="377.5" y2="20" gradientUnits="userSpaceOnUse">
<stop stop-color="#1A1A1A"/>
<stop offset="0.393876" stop-color="white"/>
</linearGradient>
</defs>
</svg>
